<mxfile host="app.diagrams.net" modified="2023-05-16T07:27:52.526Z" agent="Mozilla/5.0 (Windows NT 10.0; Win64; x64) AppleWebKit/537.36 (KHTML, like Gecko) Chrome/113.0.0.0 Safari/537.36" version="21.3.2" etag="9hY92YnZl1AxG_eWE1UL" type="github">
  <diagram name="페이지-1" id="MNHxGj0XQhXAvuVSrvUu">
    <mxGraphModel>
      <root>
        <mxCell id="0" />
        <mxCell id="1" parent="0" />
      </root>
    </mxGraphModel>
  </diagram>
</mxfile>
